<svg xmlns="http://www.w3.org/2000/svg" xmlns:xlink="http://www.w3.org/1999/xlink" width="1122" zoomAndPan="magnify" viewBox="0 0 841.92 595.499987" height="793" preserveAspectRatio="xMidYMid meet" version="1.0"><defs><g/></defs><g fill="#d9d9d9" fill-opacity="1"><g transform="translate(270.82046, 309.036446)"><g><path d="M 52.75 0 L 52.75 -27.171875 L 1.796875 -27.171875 L 1.796875 -53.953125 L 34.171875 -171.859375 L 87.71875 -171.859375 L 87.71875 -55.75 L 96.921875 -55.75 L 96.921875 -27.171875 L 87.71875 -27.171875 L 87.71875 0 Z M 32.375 -55.75 L 52.75 -55.75 L 52.75 -142.28125 Z M 32.375 -55.75 "/></g></g></g><g fill="#d9d9d9" fill-opacity="1"><g transform="translate(371.533278, 309.036446)"><g><path d="M 49.359375 1.59375 C 34.835938 1.59375 23.644531 -2.5 15.78125 -10.6875 C 7.925781 -18.882812 4 -30.578125 4 -45.765625 L 4 -123.296875 C 4 -139.546875 7.796875 -151.929688 15.390625 -160.453125 C 22.984375 -168.984375 34.304688 -173.25 49.359375 -173.25 C 64.546875 -173.25 75.9375 -168.984375 83.53125 -160.453125 C 91.125 -151.929688 94.921875 -139.546875 94.921875 -123.296875 L 94.921875 -45.765625 C 94.921875 -30.441406 90.988281 -18.71875 83.125 -10.59375 C 75.269531 -2.46875 64.015625 1.59375 49.359375 1.59375 Z M 49.359375 -29.96875 C 51.890625 -29.96875 53.953125 -31.132812 55.546875 -33.46875 C 57.148438 -35.800781 57.953125 -38.566406 57.953125 -41.765625 L 57.953125 -126.484375 C 57.953125 -131.421875 57.382812 -135.1875 56.25 -137.78125 C 55.113281 -140.375 52.816406 -141.671875 49.359375 -141.671875 C 45.890625 -141.671875 43.625 -140.375 42.5625 -137.78125 C 41.5 -135.1875 40.96875 -131.421875 40.96875 -126.484375 L 40.96875 -41.765625 C 40.96875 -38.566406 41.734375 -35.800781 43.265625 -33.46875 C 44.796875 -31.132812 46.828125 -29.96875 49.359375 -29.96875 Z M 49.359375 -29.96875 "/></g></g></g><g fill="#d9d9d9" fill-opacity="1"><g transform="translate(472.246096, 309.036446)"><g><path d="M 52.75 0 L 52.75 -27.171875 L 1.796875 -27.171875 L 1.796875 -53.953125 L 34.171875 -171.859375 L 87.71875 -171.859375 L 87.71875 -55.75 L 96.921875 -55.75 L 96.921875 -27.171875 L 87.71875 -27.171875 L 87.71875 0 Z M 32.375 -55.75 L 52.75 -55.75 L 52.75 -142.28125 Z M 32.375 -55.75 "/></g></g></g><g fill="#d9d9d9" fill-opacity="1"><g transform="translate(271.73432, 413.444914)"><g><path d="M 5.957031 -19.917969 L 1.816406 -19.917969 L 1.816406 0 L 15.664062 0 L 15.664062 -3.691406 L 5.957031 -3.691406 Z M 5.957031 -19.917969 "/></g></g></g><g fill="#d9d9d9" fill-opacity="1"><g transform="translate(286.867422, 413.444914)"><g><path d="M 8.28125 0.476562 C 12.617188 0.476562 15.664062 -2.796875 15.664062 -7.160156 C 15.664062 -11.523438 12.617188 -14.796875 8.28125 -14.796875 C 3.945312 -14.796875 0.894531 -11.523438 0.894531 -7.160156 C 0.894531 -2.796875 3.945312 0.476562 8.28125 0.476562 Z M 8.28125 -2.601562 C 6.070312 -2.601562 4.699219 -4.390625 4.699219 -7.160156 C 4.699219 -9.929688 6.070312 -11.722656 8.28125 -11.722656 C 10.492188 -11.722656 11.859375 -9.929688 11.859375 -7.160156 C 11.859375 -4.390625 10.492188 -2.601562 8.28125 -2.601562 Z M 8.28125 -2.601562 "/></g></g></g><g fill="#d9d9d9" fill-opacity="1"><g transform="translate(302.476061, 413.444914)"><g><path d="M 8.28125 0.476562 C 12.617188 0.476562 15.664062 -2.796875 15.664062 -7.160156 C 15.664062 -11.523438 12.617188 -14.796875 8.28125 -14.796875 C 3.945312 -14.796875 0.894531 -11.523438 0.894531 -7.160156 C 0.894531 -2.796875 3.945312 0.476562 8.28125 0.476562 Z M 8.28125 -2.601562 C 6.070312 -2.601562 4.699219 -4.390625 4.699219 -7.160156 C 4.699219 -9.929688 6.070312 -11.722656 8.28125 -11.722656 C 10.492188 -11.722656 11.859375 -9.929688 11.859375 -7.160156 C 11.859375 -4.390625 10.492188 -2.601562 8.28125 -2.601562 Z M 8.28125 -2.601562 "/></g></g></g><g fill="#d9d9d9" fill-opacity="1"><g transform="translate(318.084701, 413.444914)"><g><path d="M 15.46875 -14.433594 L 10.519531 -14.433594 L 7.300781 -10.855469 L 5.511719 -8.617188 L 5.621094 -11.945312 L 5.621094 -19.917969 L 1.679688 -19.917969 L 1.679688 0 L 5.621094 0 L 5.621094 -4.785156 L 7.132812 -6.351562 L 8.140625 -4.503906 L 10.910156 0 L 15.582031 0 L 9.847656 -8.757812 Z M 15.46875 -14.433594 "/></g></g></g><g fill="#d9d9d9" fill-opacity="1"><g transform="translate(333.133885, 413.444914)"><g><path d="M 7.722656 0.53125 C 11.609375 0.53125 14.125 -1.230469 14.125 -4.28125 C 14.125 -6.519531 12.785156 -7.832031 9.902344 -8.421875 L 6.796875 -9.0625 C 5.761719 -9.289062 5.175781 -9.761719 5.175781 -10.519531 C 5.175781 -11.441406 6.015625 -12.058594 7.328125 -12.058594 C 8.8125 -12.058594 9.875 -11.300781 10.070312 -10.042969 L 13.625 -10.183594 C 13.257812 -13.007812 10.882812 -14.796875 7.386719 -14.796875 C 3.832031 -14.796875 1.511719 -12.953125 1.511719 -10.042969 C 1.511719 -7.832031 2.882812 -6.378906 5.707031 -5.820312 L 8.558594 -5.257812 C 9.875 -5.007812 10.460938 -4.585938 10.460938 -3.804688 C 10.460938 -2.714844 9.34375 -2.210938 7.859375 -2.210938 C 5.988281 -2.210938 5.007812 -3.019531 4.785156 -4.449219 L 1.175781 -4.308594 C 1.539062 -1.230469 3.777344 0.53125 7.722656 0.53125 Z M 7.722656 0.53125 "/></g></g></g><g fill="#d9d9d9" fill-opacity="1"><g transform="translate(347.287943, 413.444914)"><g/></g></g><g fill="#d9d9d9" fill-opacity="1"><g transform="translate(353.329917, 413.444914)"><g><path d="M 5.957031 -19.917969 L 1.816406 -19.917969 L 1.816406 0 L 15.664062 0 L 15.664062 -3.691406 L 5.957031 -3.691406 Z M 5.957031 -19.917969 "/></g></g></g><g fill="#d9d9d9" fill-opacity="1"><g transform="translate(368.463018, 413.444914)"><g><path d="M 5.652344 -16.335938 L 5.652344 -19.917969 L 1.707031 -19.917969 L 1.707031 -16.335938 Z M 5.621094 0 L 5.621094 -14.433594 L 1.679688 -14.433594 L 1.679688 0 Z M 5.621094 0 "/></g></g></g><g fill="#d9d9d9" fill-opacity="1"><g transform="translate(374.812694, 413.444914)"><g><path d="M 15.46875 -14.433594 L 10.519531 -14.433594 L 7.300781 -10.855469 L 5.511719 -8.617188 L 5.621094 -11.945312 L 5.621094 -19.917969 L 1.679688 -19.917969 L 1.679688 0 L 5.621094 0 L 5.621094 -4.785156 L 7.132812 -6.351562 L 8.140625 -4.503906 L 10.910156 0 L 15.582031 0 L 9.847656 -8.757812 Z M 15.46875 -14.433594 "/></g></g></g><g fill="#d9d9d9" fill-opacity="1"><g transform="translate(389.861878, 413.444914)"><g><path d="M 15.414062 -6.714844 C 15.414062 -11.777344 12.28125 -14.796875 8 -14.796875 C 3.582031 -14.796875 0.894531 -11.496094 0.894531 -7.273438 C 0.894531 -2.851562 3.636719 0.476562 8.421875 0.476562 C 11.664062 0.476562 14.070312 -1.035156 15.050781 -4.167969 L 11.132812 -4.449219 C 10.65625 -3.1875 9.707031 -2.574219 8.335938 -2.574219 C 6.378906 -2.574219 5.121094 -3.859375 4.953125 -6.042969 L 15.414062 -6.042969 Z M 8.140625 -11.917969 C 9.929688 -11.917969 11.105469 -10.742188 11.328125 -8.726562 L 4.921875 -8.726562 C 5.121094 -10.714844 6.351562 -11.917969 8.140625 -11.917969 Z M 8.140625 -11.917969 "/></g></g></g><g fill="#d9d9d9" fill-opacity="1"><g transform="translate(405.218753, 413.444914)"><g/></g></g><g fill="#d9d9d9" fill-opacity="1"><g transform="translate(411.260727, 413.444914)"><g><path d="M 10.324219 -13.734375 L 9.175781 -10.964844 L 8.085938 -13.734375 L 5.0625 -19.917969 L 0.503906 -19.917969 L 7.105469 -7.722656 L 7.105469 0 L 11.246094 0 L 11.246094 -7.722656 L 17.847656 -19.917969 L 13.398438 -19.917969 Z M 10.324219 -13.734375 "/></g></g></g><g fill="#d9d9d9" fill-opacity="1"><g transform="translate(428.659618, 413.444914)"><g><path d="M 8.28125 0.476562 C 12.617188 0.476562 15.664062 -2.796875 15.664062 -7.160156 C 15.664062 -11.523438 12.617188 -14.796875 8.28125 -14.796875 C 3.945312 -14.796875 0.894531 -11.523438 0.894531 -7.160156 C 0.894531 -2.796875 3.945312 0.476562 8.28125 0.476562 Z M 8.28125 -2.601562 C 6.070312 -2.601562 4.699219 -4.390625 4.699219 -7.160156 C 4.699219 -9.929688 6.070312 -11.722656 8.28125 -11.722656 C 10.492188 -11.722656 11.859375 -9.929688 11.859375 -7.160156 C 11.859375 -4.390625 10.492188 -2.601562 8.28125 -2.601562 Z M 8.28125 -2.601562 "/></g></g></g><g fill="#d9d9d9" fill-opacity="1"><g transform="translate(444.268258, 413.444914)"><g><path d="M 10.546875 -6.714844 C 10.546875 -4.558594 9.398438 -3.1875 7.722656 -3.1875 C 6.320312 -3.1875 5.621094 -4.140625 5.621094 -5.652344 L 5.621094 -14.433594 L 1.679688 -14.433594 L 1.679688 -4.753906 C 1.679688 -1.621094 3.414062 0.363281 6.40625 0.363281 C 8.253906 0.363281 9.625 -0.390625 10.574219 -1.957031 L 10.628906 0 L 14.492188 0 L 14.492188 -14.433594 L 10.546875 -14.433594 Z M 10.546875 -6.714844 "/></g></g></g><g fill="#d9d9d9" fill-opacity="1"><g transform="translate(459.485277, 413.444914)"><g/></g></g><g fill="#d9d9d9" fill-opacity="1"><g transform="translate(465.527251, 413.444914)"><g><path d="M 18.9375 -10.769531 L 10.628906 -10.769531 L 10.628906 -7.300781 L 15.359375 -7.300781 C 14.9375 -4.390625 12.953125 -2.9375 10.492188 -2.9375 C 7.050781 -2.9375 5.121094 -5.761719 5.121094 -9.957031 C 5.121094 -14.042969 7.019531 -16.8125 10.492188 -16.8125 C 12.925781 -16.8125 14.378906 -15.46875 14.742188 -13.371094 L 18.796875 -13.625 C 18.128906 -17.820312 15.191406 -20.394531 10.265625 -20.394531 C 4.953125 -20.394531 0.980469 -16.421875 0.980469 -9.957031 C 0.980469 -3.496094 5.007812 0.644531 10.042969 0.644531 C 12.699219 0.644531 14.601562 -0.53125 15.609375 -2.125 L 16.253906 0 L 18.9375 0 Z M 18.9375 -10.769531 "/></g></g></g><g fill="#d9d9d9" fill-opacity="1"><g transform="translate(485.331788, 413.444914)"><g><path d="M 8.28125 0.476562 C 12.617188 0.476562 15.664062 -2.796875 15.664062 -7.160156 C 15.664062 -11.523438 12.617188 -14.796875 8.28125 -14.796875 C 3.945312 -14.796875 0.894531 -11.523438 0.894531 -7.160156 C 0.894531 -2.796875 3.945312 0.476562 8.28125 0.476562 Z M 8.28125 -2.601562 C 6.070312 -2.601562 4.699219 -4.390625 4.699219 -7.160156 C 4.699219 -9.929688 6.070312 -11.722656 8.28125 -11.722656 C 10.492188 -11.722656 11.859375 -9.929688 11.859375 -7.160156 C 11.859375 -4.390625 10.492188 -2.601562 8.28125 -2.601562 Z M 8.28125 -2.601562 "/></g></g></g><g fill="#d9d9d9" fill-opacity="1"><g transform="translate(500.940416, 413.444914)"><g><path d="M 9.007812 -11.523438 L 9.007812 -14.433594 L 6.320312 -14.351562 L 6.320312 -18.882812 L 2.378906 -18.882812 L 2.378906 -14.378906 L 0.417969 -14.433594 L 0.417969 -11.523438 L 2.378906 -11.609375 L 2.378906 -4.054688 C 2.378906 -1.148438 3.523438 0 6.433594 0 L 9.007812 0 L 9.007812 -3.160156 L 7.691406 -3.160156 C 6.714844 -3.160156 6.320312 -3.550781 6.320312 -4.53125 L 6.320312 -11.609375 Z M 9.007812 -11.523438 "/></g></g></g><g fill="#d9d9d9" fill-opacity="1"><g transform="translate(509.555893, 413.444914)"><g/></g></g><g fill="#d9d9d9" fill-opacity="1"><g transform="translate(515.597877, 413.444914)"><g><path d="M 5.957031 -19.917969 L 1.816406 -19.917969 L 1.816406 0 L 15.664062 0 L 15.664062 -3.691406 L 5.957031 -3.691406 Z M 5.957031 -19.917969 "/></g></g></g><g fill="#d9d9d9" fill-opacity="1"><g transform="translate(530.730968, 413.444914)"><g><path d="M 8.28125 0.476562 C 12.617188 0.476562 15.664062 -2.796875 15.664062 -7.160156 C 15.664062 -11.523438 12.617188 -14.796875 8.28125 -14.796875 C 3.945312 -14.796875 0.894531 -11.523438 0.894531 -7.160156 C 0.894531 -2.796875 3.945312 0.476562 8.28125 0.476562 Z M 8.28125 -2.601562 C 6.070312 -2.601562 4.699219 -4.390625 4.699219 -7.160156 C 4.699219 -9.929688 6.070312 -11.722656 8.28125 -11.722656 C 10.492188 -11.722656 11.859375 -9.929688 11.859375 -7.160156 C 11.859375 -4.390625 10.492188 -2.601562 8.28125 -2.601562 Z M 8.28125 -2.601562 "/></g></g></g><g fill="#d9d9d9" fill-opacity="1"><g transform="translate(546.339596, 413.444914)"><g><path d="M 7.722656 0.53125 C 11.609375 0.53125 14.125 -1.230469 14.125 -4.28125 C 14.125 -6.519531 12.785156 -7.832031 9.902344 -8.421875 L 6.796875 -9.0625 C 5.761719 -9.289062 5.175781 -9.761719 5.175781 -10.519531 C 5.175781 -11.441406 6.015625 -12.058594 7.328125 -12.058594 C 8.8125 -12.058594 9.875 -11.300781 10.070312 -10.042969 L 13.625 -10.183594 C 13.257812 -13.007812 10.882812 -14.796875 7.386719 -14.796875 C 3.832031 -14.796875 1.511719 -12.953125 1.511719 -10.042969 C 1.511719 -7.832031 2.882812 -6.378906 5.707031 -5.820312 L 8.558594 -5.257812 C 9.875 -5.007812 10.460938 -4.585938 10.460938 -3.804688 C 10.460938 -2.714844 9.34375 -2.210938 7.859375 -2.210938 C 5.988281 -2.210938 5.007812 -3.019531 4.785156 -4.449219 L 1.175781 -4.308594 C 1.539062 -1.230469 3.777344 0.53125 7.722656 0.53125 Z M 7.722656 0.53125 "/></g></g></g><g fill="#d9d9d9" fill-opacity="1"><g transform="translate(560.493665, 413.444914)"><g><path d="M 9.007812 -11.523438 L 9.007812 -14.433594 L 6.320312 -14.351562 L 6.320312 -18.882812 L 2.378906 -18.882812 L 2.378906 -14.378906 L 0.417969 -14.433594 L 0.417969 -11.523438 L 2.378906 -11.609375 L 2.378906 -4.054688 C 2.378906 -1.148438 3.523438 0 6.433594 0 L 9.007812 0 L 9.007812 -3.160156 L 7.691406 -3.160156 C 6.714844 -3.160156 6.320312 -3.550781 6.320312 -4.53125 L 6.320312 -11.609375 Z M 9.007812 -11.523438 "/></g></g></g><g fill="#d9d9d9" fill-opacity="1"><g transform="translate(569.117421, 413.444914)"><g/></g></g></svg>