<?xml version="1.0" encoding="UTF-8"?>
<svg data-bbox="14.95 33.171 1469.937 683.209" height="1000" viewBox="0 0 1500 750" width="2000" xmlns="http://www.w3.org/2000/svg" data-type="shape">
    <g>
        <path d="M692.91 319.477c-30.36-22.829-60.203-46.211-89.816-69.872-14.86-11.78-29.602-23.675-44.293-35.64l-22.074-17.91c-3.579-2.93-6.84-5.782-10.25-8.672-3.395-2.836-6.914-5.348-10.34-8.028-27.973-20.664-59.688-35.171-92.52-43.265-32.87-8.07-66.957-9.219-99.613-4.219-32.715 4.984-63.817 16.79-91.371 33.508-27.488 16.758-51.492 39.137-69.903 64.793-18.605 25.496-31.652 54.516-38.398 84.762-6.687 30.242-7.504 61.597-2.144 91.664 10.73 60.273 46.347 113.78 96.218 147.148a221.6 221.6 0 0 0 39.203 20.957 221.3 221.3 0 0 0 42.317 12.969c28.953 5.808 59.012 5.734 87.715-.106 28.687-5.89 56.152-16.98 80.199-33.304a216 216 0 0 0 17.422-13.067c5.605-4.675 10.847-9.418 16.437-15.133l39.461-39.242 161.242-158.35 162.32-157.258 41.255-39.441c4.082-3.817 7.812-7.63 12.218-11.422 4.403-3.743 8.68-7.637 13.23-11.207 4.587-3.528 9.071-7.188 13.778-10.547 4.766-3.293 9.434-6.715 14.3-9.844 38.798-25.29 82.696-42.71 128.095-50.547 45.402-7.836 92.16-6.496 136.816 3.836 44.652 10.25 87.234 29.617 123.89 56.754 36.657 27.012 67.75 61.078 90.946 100.187 23.246 39.02 37.707 82.872 43.207 127.368 5.422 44.527 1.777 89.941-11.016 132.504-12.656 42.586-34.097 82.324-62.336 115.875-28.351 33.468-63.105 60.664-101.69 80.132-38.524 19.551-80.864 30.48-123.145 33.028-42.332 2.652-84.774-3.602-123.961-17.711-39.254-13.985-75.079-36.23-104.774-64.133l-10.863-10.7-10.11-11.023-18.37-21.562c-12.255-14.36-24.485-28.742-36.575-43.285-24.3-28.953-48.355-58.196-71.902-88 30.426 22.75 60.347 46.054 90.008 69.664 14.898 11.738 29.652 23.625 44.386 35.547l22.106 17.863 10.16 8.652 10.355 7.934c28.098 20.449 59.848 34.8 92.696 42.687 32.91 7.778 66.949 8.762 99.547 3.594 32.64-5.191 63.648-17.113 91.07-33.969 27.379-16.894 51.168-39.43 69.453-65.105 18.438-25.574 31.3-54.64 37.867-84.89 6.473-30.24 7.285-61.571 1.645-91.567-11.133-60.11-46.883-113.434-96.953-146.453-24.84-16.364-52.63-27.852-81.61-33.485-28.96-5.632-58.996-5.398-87.648.59-28.664 5.899-56.027 17.238-79.98 33.66-3.02 2.012-5.868 4.278-8.837 6.364-2.921 2.156-5.648 4.566-8.511 6.804-2.82 2.282-5.418 4.852-8.16 7.23-2.715 2.372-5.485 5.4-8.239 8.055l-39.668 39.422-161.316 158.274-162.398 157.183-41.458 39.618c-7.753 7.578-16.617 15.359-25.632 22.535a344 344 0 0 1-28.192 20.226c-38.926 25.032-82.875 42.313-128.324 49.758-45.41 7.578-92.137 5.996-136.715-4.566a343.4 343.4 0 0 1-64.805-22.371c-20.722-9.692-40.417-21.5-58.687-35.09-36.477-27.188-67.367-61.414-90.332-100.64-22.895-39.177-37.238-83.009-42.398-127.532-5.157-44.535-1.23-89.883 11.793-132.336 12.859-42.477 34.5-82.078 62.906-115.445 28.57-33.227 63.398-60.25 102.078-79.473 38.594-19.328 80.969-29.977 123.234-32.332 84.703-5.055 169.242 26.59 228.059 83.101 3.594 3.586 7.344 7.075 10.773 10.735 3.344 3.668 6.848 7.36 10.016 11.004l18.363 21.547c12.274 14.336 24.485 28.742 36.59 43.27 24.305 28.948 48.383 58.167 71.953 87.94"/>
    </g>
</svg>
